Coordinates
version=1
nRows=40
nColumns=30
inDegrees=yes

Units are S.I. units (second, meters, Newtons, ...)
Angles are in degrees.

endheader
time	floatyaw	floatroll	floatpitch	floatx	floaty	floatz	pro_sup_l	deviation_l	flexion_l	cmc_flexion_l	cmc_abduction_l	mp_flexion_l	ip_flexion_l	2mcp_flexion_l	2mcp_abduction_l	2pm_flexion_l	2md_flexion_l	3mcp_flexion_l	3mcp_abduction_l	3pm_flexion_l	3md_flexion_l	4mcp_flexion_l	4mcp_abduction_l	4pm_flexion_l	4md_flexion_l	5mcp_flexion_l	5mcp_abduction_l	5pm_flexion_l	5md_flexion_l
0.005000	-4.263706	-0.696975	99.509199	0.056266	-0.154032	0.070971	58.406635	1.475030	-1.860053	22.798713	36.948324	-20.473196	-46.785384	36.547212	4.686480	62.123233	39.547995	41.857365	4.338838	60.191651	36.543874	37.549876	-5.833243	71.437042	50.998128	44.982754	-4.446365	73.550051	42.708975
0.015000	-4.263706	-0.696975	99.509199	0.056672	-0.152630	0.071260	57.409215	1.594018	-2.558801	22.968281	36.871800	-20.509064	-46.934418	37.289611	4.709250	62.096016	39.686031	42.532337	4.319900	60.308348	36.760068	38.430206	-5.911265	71.551323	51.489521	46.433396	-4.279180	73.660669	42.616072
0.025000	-4.263706	-0.696975	99.509199	0.057032	-0.150489	0.071549	56.727212	1.760901	-3.260657	23.315910	36.669324	-20.638678	-47.238829	38.010073	4.723261	62.049730	39.820910	43.228385	4.298493	60.324069	36.966923	39.294985	-5.976737	71.556181	51.932870	47.783001	-4.128726	73.649814	42.518651
0.035000	-4.263706	-0.696975	99.509199	0.057376	-0.147884	0.071815	56.358162	1.929411	-3.907470	23.816630	36.269399	-20.863006	-47.654623	38.768763	4.740230	61.977698	39.947209	43.985249	4.273368	60.212796	37.132572	40.194735	-6.036054	71.416923	52.324147	49.094941	-3.997691	73.459109	42.360739
0.045000	-4.263706	-0.696975	99.509199	0.057730	-0.145234	0.072015	56.227213	2.059588	-4.424238	24.401206	35.631869	-21.168076	-48.086584	39.586235	4.771380	61.883000	40.047321	44.791047	4.247579	59.990692	37.230210	41.111262	-6.092088	71.166295	52.640822	50.365087	-3.894246	73.083146	42.114009
0.055000	-4.263706	-0.696975	99.509199	0.058104	-0.142974	0.072109	56.204043	2.134273	-4.758976	24.970579	34.774194	-21.524591	-48.421805	40.436516	4.822044	61.775218	40.099182	45.589681	4.225077	59.711197	37.250337	41.968524	-6.143861	70.899087	52.858560	51.538367	-3.823952	72.586022	41.790485
0.065000	-4.263706	-0.696975	99.509199	0.058476	-0.141417	0.072079	56.149626	2.164261	-4.910972	25.428182	33.774399	-21.893611	-48.573930	41.257487	4.888387	61.665367	40.087768	46.307093	4.207810	59.440455	37.204824	42.674531	-6.187932	70.724470	52.965731	52.542505	-3.784626	72.077411	41.434213
0.075000	-4.263706	-0.696975	99.509199	0.058803	-0.140658	0.071935	55.970462	2.178200	-4.929809	25.715136	32.745705	-22.238164	-48.516922	41.974840	4.958924	61.563242	40.014425	46.882505	4.194915	59.227879	37.121416	43.168306	-6.220859	70.706759	52.969655	53.321003	-3.766803	71.661887	41.098981
0.085000	-4.263706	-0.696975	99.509199	0.059041	-0.140572	0.071721	55.650187	2.203756	-4.888276	25.829554	31.793813	-22.534960	-48.290904	42.530814	5.020230	61.477394	39.897892	47.290357	4.183829	59.088921	37.031429	43.445843	-6.241416	70.834616	52.894187	53.853675	-3.758388	71.394289	40.825377
0.095000	-4.263706	-0.696975	99.509199	0.059170	-0.140892	0.071493	55.242060	2.252381	-4.849345	25.820510	30.976424	-22.779839	-47.978569	42.906794	5.063255	61.414554	39.765696	47.545979	4.171952	59.007249	36.956663	43.556333	-6.251411	71.035349	52.771447	54.162038	-3.749726	71.266534	40.627875
0.105000	-4.263706	-0.696975	99.509199	0.059201	-0.141332	0.071299	54.829868	2.316300	-4.847141	25.761981	30.282090	-22.984904	-47.666842	43.130317	5.086582	61.376473	39.640846	47.696035	4.157664	58.950640	36.901879	43.577506	-6.254864	71.218390	52.631807	54.301733	-3.736092	71.226968	40.495294
0.115000	-4.263706	-0.696975	99.509199	0.059173	-0.141691	0.071166	54.481489	2.377280	-4.887433	25.721713	29.636430	-23.170242	-47.414034	43.262965	5.095421	61.355982	39.531722	47.799335	4.140408	58.889097	36.856193	43.585183	-6.256205	71.318339	52.496579	54.345543	-3.717092	71.214818	40.401418
0.125000	-4.263706	-0.696975	99.509199	0.059129	-0.141894	0.071091	54.219960	2.419806	-4.959089	25.739370	28.933238	-23.354867	-47.236179	43.374392	5.097799	61.336444	39.430931	47.905694	4.120325	58.806356	36.801791	43.629416	-6.258600	71.316631	52.375963	54.362209	-3.694448	71.189022	40.318825
0.135000	-4.263706	-0.696975	99.509199	0.059103	-0.141973	0.071049	54.023888	2.440446	-5.044893	25.820313	28.078410	-23.549872	-47.113727	43.514643	5.100469	61.296961	39.323301	48.040648	4.097948	58.702006	36.724610	43.724153	-6.263230	71.237576	52.271329	54.398106	-3.669988	71.138842	40.228971
0.145000	-4.263706	-0.696975	99.509199	0.059105	-0.142010	0.071000	53.851370	2.449121	-5.126669	25.942794	27.028821	-23.754626	-47.009853	43.697587	5.106480	61.221443	39.197734	48.201359	4.074134	58.586452	36.621424	43.851634	-6.269609	71.127430	52.178999	54.468305	-3.644801	71.076151	40.125249
0.155000	-4.263706	-0.696975	99.509199	0.059128	-0.142077	0.070908	53.669574	2.463026	-5.187138	26.072309	25.809984	-23.956461	-46.889413	43.902070	5.115089	61.106467	39.055563	48.364014	4.050111	58.473168	36.500578	43.977367	-6.276450	71.030059	52.093371	54.559590	-3.619499	71.019080	40.010590
0.165000	-4.263706	-0.696975	99.509199	0.059155	-0.142199	0.070755	53.472366	2.497530	-5.212724	26.176837	24.505493	-24.134510	-46.731315	44.088056	5.123435	60.963141	38.910656	48.498077	4.027381	58.372185	36.377205	44.067909	-6.282457	70.970337	52.008810	54.642631	-3.594905	70.978723	39.893326
0.175000	-4.263706	-0.696975	99.509199	0.059168	-0.142361	0.070546	53.278682	2.559182	-5.198079	26.237976	23.223600	-24.267075	-46.531944	44.217917	5.128745	60.811772	38.782020	48.580305	4.007404	58.286992	36.266211	44.103632	-6.286759	70.950184	51.920741	54.687045	-3.572449	70.955517	39.783919
0.185000	-4.263706	-0.696975	99.509199	0.059154	-0.142527	0.070305	53.116643	2.643954	-5.149256	26.254957	22.056537	-24.339889	-46.301139	44.272178	5.129875	60.672409	38.684135	48.602770	3.991173	58.215039	36.176681	44.082340	-6.288990	70.955673	51.826647	54.673329	-3.553934	70.944207	39.692642
0.195000	-4.263706	-0.696975	99.509199	0.059105	-0.142668	0.070063	53.005245	2.740503	-5.082255	26.241462	21.051512	-24.351980	-46.055168	44.254132	5.127597	60.556361	38.620602	48.573182	3.978946	58.150450	36.109877	44.015133	-6.289241	70.968958	51.727268	54.598775	-3.540791	70.940896	39.626902
0.205000	-4.263706	-0.696975	99.509199	0.059025	-0.142778	0.069847	52.944446	2.835789	-5.016786	26.218043	20.205570	-24.316838	-45.811478	44.184616	5.123826	60.462686	38.583734	48.509760	3.970318	58.086911	36.060750	43.919453	-6.287964	70.977704	51.627405	54.477404	-3.533339	70.945663	39.587780
0.215000	-4.263706	-0.696975	99.509199	0.058920	-0.142864	0.069668	52.917839	2.920061	-4.968365	26.203767	19.482689	-24.258217	-45.586476	44.091916	5.120452	60.380698	38.559146	48.434228	3.964545	58.019344	36.021343	43.813494	-6.285810	70.977756	51.535042	54.334899	-3.530484	70.959208	39.567636
0.225000	-4.263706	-0.696975	99.509199	0.058802	-0.142945	0.069523	52.904108	2.989352	-4.942682	26.210002	18.840122	-24.201867	-45.393940	44.001491	5.118420	60.296643	38.532528	48.365349	3.960878	57.944445	35.984207	43.712743	-6.283382	70.970071	51.458227	54.199561	-3.530090	70.977749	39.551517
0.235000	-4.263706	-0.696975	99.509199	0.058684	-0.143027	0.069398	52.888878	3.045128	-4.934637	26.237939	18.249007	-24.166395	-45.242023	43.928482	5.117433	60.201077	38.495467	48.314018	3.958682	57.861159	35.944649	43.627307	-6.280985	70.956431	51.401100	54.091609	-3.529802	70.991825	39.523016
0.245000	-4.263706	-0.696975	99.509199	0.058574	-0.143107	0.069280	52.869925	3.092018	-4.931997	26.280087	17.700910	-24.157197	-45.130042	43.874650	5.116302	60.093625	38.448036	48.280708	3.957355	57.771720	35.901464	43.559637	-6.278553	70.937764	51.361627	54.015412	-3.527936	70.990813	39.471593
0.255000	-4.263706	-0.696975	99.509199	0.058478	-0.143174	0.069159	52.854232	3.135147	-4.921672	26.324625	17.201130	-24.166211	-45.047918	43.830304	5.113678	59.983399	38.397364	48.256392	3.956223	57.682416	35.856304	43.504226	-6.275807	70.915353	51.332637	53.959398	-3.523981	70.969561	39.396772
0.265000	-4.263706	-0.696975	99.509199	0.058394	-0.143218	0.069035	52.850602	3.178402	-4.895686	26.360663	16.756312	-24.177437	-44.979596	43.780273	5.108803	59.885236	38.353273	48.227310	3.954612	57.602510	35.812141	43.450799	-6.272482	70.892420	51.305439	53.904387	-3.518474	70.931811	39.306711
0.275000	-4.263706	-0.696975	99.509199	0.058321	-0.143239	0.068911	52.863110	3.223983	-4.854185	26.382202	16.365019	-24.175166	-44.908818	43.711316	5.101860	59.813497	38.323440	48.181851	3.952055	57.540930	35.771558	43.389959	-6.268483	70.873957	51.273749	53.835354	-3.512393	70.888200	39.212758
0.285000	-4.263706	-0.696975	99.509199	0.058254	-0.143246	0.068792	52.888792	3.272724	-4.804295	26.389227	16.015945	-24.150532	-44.823973	43.617688	5.093757	59.776168	38.310536	48.116100	3.948448	57.502350	35.735720	43.317825	-6.263890	70.865023	51.235700	53.749074	-3.506452	70.850862	39.124106
0.295000	-4.263706	-0.696975	99.509199	0.058193	-0.143254	0.068682	52.919812	3.324359	-4.755740	26.385941	15.692835	-24.103612	-44.719902	43.502677	5.085501	59.771766	38.312299	48.035107	3.943993	57.484992	35.704384	43.236839	-6.258893	70.868887	51.193042	53.653420	-3.500780	70.828248	39.045606
0.305000	-4.263706	-0.696975	99.509199	0.058137	-0.143274	0.068583	52.947973	3.377356	-4.715913	26.377702	15.381907	-24.041406	-44.597144	43.376275	5.077632	59.789979	38.323567	47.949626	3.938982	57.481307	35.676604	43.152984	-6.253731	70.885816	51.148414	53.560343	-3.495151	70.822353	38.978805
0.315000	-4.263706	-0.696975	99.509199	0.058088	-0.143308	0.068496	52.968596	3.428626	-4.687110	26.368542	15.077527	-23.973935	-44.460457	43.250844	5.070096	59.815372	38.338554	47.870647	3.933648	57.481043	35.651492	43.072046	-6.248641	70.912706	51.102792	53.478360	-3.489557	70.828877	38.924036
0.325000	-4.263706	-0.696975	99.509199	0.058043	-0.143349	0.068420	52.981693	3.473785	-4.667059	26.360188	14.783644	-23.910540	-44.317740	43.136840	5.062628	59.832831	38.352444	47.804799	3.928189	57.475374	35.628619	42.997407	-6.243806	70.943916	51.054931	53.409330	-3.484605	70.839785	38.881418
0.335000	-4.263706	-0.696975	99.509199	0.058002	-0.143388	0.068359	52.990381	3.508364	-4.651711	26.352570	14.510661	-23.857398	-44.179142	43.040043	5.055277	59.833065	38.362250	47.752626	3.922883	57.460387	35.608052	42.930071	-6.239281	70.973457	51.003027	53.350371	-3.481343	70.847059	38.850144
0.345000	-4.263706	-0.696975	99.509199	0.057962	-0.143417	0.068312	52.998166	3.529522	-4.638181	26.345147	14.269524	-23.816459	-44.055480	42.961000	5.048694	59.815927	38.367081	47.709985	3.918127	57.438308	35.590169	42.869997	-6.234987	70.997654	50.947038	53.298093	-3.480638	70.846218	38.827216
0.355000	-4.263706	-0.696975	99.509199	0.057922	-0.143435	0.068281	53.007105	3.537315	-4.625994	26.337915	14.065943	-23.785604	-43.955315	42.896296	5.043963	59.789864	38.367929	47.671142	3.914298	57.415777	35.575374	42.817111	-6.230813	71.016699	50.889607	53.251178	-3.482605	70.838454	38.807483
0.365000	-4.263706	-0.696975	99.509199	0.057885	-0.143444	0.068263	53.017811	3.534732	-4.616284	26.331247	13.897232	-23.759814	-43.881269	42.840408	5.042021	59.767647	38.367133	47.631563	3.911549	57.400010	35.563764	42.771052	-6.226767	71.034037	50.834609	53.209402	-3.486552	70.830555	38.785787
0.375000	-4.263706	-0.696975	99.509199	0.057849	-0.143449	0.068256	53.030728	3.526513	-4.610043	26.324962	13.752932	-23.733396	-43.828037	42.787257	5.043001	59.760469	38.367657	47.589209	3.909720	57.394828	35.554844	42.730276	-6.223051	71.053809	50.784424	53.170855	-3.491367	70.832077	38.759971
0.385000	-4.263706	-0.696975	99.509199	0.057817	-0.143452	0.068255	53.047177	3.517439	-4.607105	26.318025	13.618912	-23.702959	-43.784766	42.731764	5.045982	59.772930	38.371957	47.544655	3.908480	57.398452	35.547416	42.692194	-6.219971	71.077600	50.738326	53.131071	-3.495984	70.850265	38.732217
0.395000	-4.263706	-0.696975	99.509199	0.057785	-0.143453	0.068257	53.069072	3.510924	-4.606616	26.309653	13.483313	-23.669715	-43.741643	42.672046	5.049372	59.800811	38.380462	47.500881	3.907577	57.404037	35.539750	42.655166	-6.217752	71.102256	50.693680	53.085971	-3.499603	70.885008	38.707141
